<?xml version="1.0" encoding="UTF-8"?>
<svg id="Layer_1" data-name="Layer 1" xmlns="http://www.w3.org/2000/svg" viewBox="0 0 228.82 313.17">
  <defs>
    <style>
      .cls-1 {
        stroke: #000;
        stroke-miterlimit: 10;
      }
    </style>
  </defs>
  <path class="cls-1" d="M142.06,270.31h86.26v42.36H72.53v-144.7h42.36v67.55l5.64-7.87,49.29-68.79c1.85-2.26,3.55-4.63,5.09-7.1,6.9-10.98,10.89-23.96,10.89-37.86,0-36.99-28.27-67.5-64.35-71.04-2.31-.23-4.66-.35-7.04-.35s-4.73.12-7.04.35h-63.82v62.41c-.35,2.82-.52,5.71-.52,8.63s.18,5.81.52,8.63v190.14H.5V.5h124.6c31.66,2.94,59.57,18.84,78.34,42.36,9.4,11.75,16.5,25.39,20.66,40.25,2.75,9.8,4.22,20.13,4.22,30.79,0,21.62-6.02,41.82-16.47,59.03l-.02.03-10.01,13.96-59.76,83.38Z"/>
</svg>