<svg width="131" height="131" viewBox="0 0 131 131" fill="none" xmlns="http://www.w3.org/2000/svg">
<g clip-path="url(#clip0_88_3575)">
<path fill-rule="evenodd" clip-rule="evenodd" d="M99.625 17.3458C99.008 18.4354 98.6903 19.6688 98.7042 20.9208C98.7474 22.6249 99.0021 24.317 99.4625 25.9583C100.438 29.4792 101.196 34.0833 102.171 38.2542C102.658 40.3125 103.254 42.2083 103.85 43.6708C105.075 46.6893 106.467 49.637 108.021 52.5C108.931 54.2183 110.142 55.7594 111.596 57.05C113.255 57.9786 115.112 58.4985 117.013 58.5667C127.358 56.9417 125.029 50.55 115.063 51.4708C113.438 51.4708 113.6 50.2792 109.646 41.125L104.771 23.9C104.067 21.8417 104.121 21.5167 106.558 19.7833C117.392 15.775 113.438 10.4125 104.554 12.2542C103.683 12.7507 102.85 13.312 102.063 13.9333C101.067 14.9282 100.243 16.0814 99.625 17.3458Z" fill="#1D6742"/>
<path fill-rule="evenodd" clip-rule="evenodd" d="M125.083 61.6542C125.146 62.6589 124.96 63.6635 124.542 64.5792C123.372 65.8989 121.85 66.8573 120.154 67.3417C117.138 68.5108 113.992 69.3111 110.783 69.725C110.809 69.3824 110.809 69.0384 110.783 68.6958C110.286 65.2519 109.205 61.918 107.587 58.8375C106.337 56.7599 104.723 54.9249 102.821 53.4208C101.062 51.8439 98.9901 50.657 96.7402 49.9381C94.4902 49.2193 92.1137 48.9848 89.7666 49.25C88.1644 49.459 86.6236 50.0006 85.243 50.8401C83.8625 51.6797 82.6727 52.7986 81.75 54.125C80.712 55.5844 79.9417 57.2168 79.475 58.9458C78.0125 64.3625 79.475 70.3208 76.225 75.1958C72.975 80.0708 66.5833 82.4 63.4958 86.5167C62.6136 87.7082 61.9853 89.0681 61.6499 90.5123C61.3144 91.9565 61.279 93.4541 61.5458 94.9125C61.5657 95.1315 61.6298 95.3441 61.7343 95.5376C61.8388 95.731 61.9814 95.9012 62.1536 96.038C62.3258 96.1747 62.5239 96.2751 62.736 96.333C62.9481 96.3909 63.1697 96.4052 63.3875 96.375C63.6135 96.3551 63.8331 96.2895 64.0331 96.1823C64.2331 96.0751 64.4093 95.9285 64.5511 95.7513C64.6928 95.5741 64.7972 95.37 64.8579 95.1514C64.9186 94.9327 64.9343 94.7041 64.9041 94.4792C64.7752 93.5167 64.8483 92.5379 65.1188 91.6053C65.3893 90.6727 65.8511 89.8067 66.475 89.0625C69.8875 84.9458 76.55 83.1583 80.1791 78.2292C81.1526 76.8379 81.902 75.3026 82.4 73.6792C84.025 68.5333 83.1041 62.4125 86.4625 58.1333C87.0882 57.3143 87.9175 56.6734 88.8678 56.2743C89.818 55.8751 90.8563 55.7318 91.8792 55.8583C94.2333 56.1146 96.4488 57.0993 98.2167 58.675C99.8914 60.0273 101.227 61.7524 102.117 63.7125C103.002 65.8948 103.656 68.1643 104.067 70.4833C104.271 71.8827 104.379 73.2943 104.392 74.7083C104.382 77.0244 104.256 79.3384 104.012 81.6417C103.816 85.1985 102.676 88.6388 100.708 91.6083C97.9458 95.6708 93.8291 98.8125 88.7375 104.879C86.017 108.08 83.9058 111.751 82.5083 115.713C81.1585 119.636 80.4453 123.751 80.3958 127.9C80.3886 128.156 80.4319 128.411 80.5233 128.65C80.6147 128.89 80.7524 129.109 80.9284 129.295C81.1045 129.481 81.3155 129.631 81.5494 129.735C81.7833 129.84 82.0355 129.897 82.2916 129.904C82.5406 129.911 82.7886 129.869 83.0214 129.781C83.2542 129.692 83.4672 129.558 83.6483 129.387C83.8294 129.216 83.975 129.011 84.0768 128.784C84.1786 128.557 84.2346 128.311 84.2416 128.062C84.4128 124.347 85.1999 120.686 86.5708 117.229C87.9216 113.667 89.9651 110.409 92.5833 107.642C98 101.683 102.442 98.5958 105.529 94.5333C108.127 90.7422 109.678 86.3325 110.025 81.75C110.389 79.2197 110.588 76.6685 110.621 74.1125V73.3H110.946C114.48 73.0181 117.97 72.3274 121.346 71.2417C124.048 70.5393 126.48 69.0499 128.333 66.9625C129.109 65.7299 129.608 64.3439 129.796 62.9C130.378 55.9114 129.995 48.8759 128.658 41.9917C127.467 35.9792 125.517 30.1833 124 23.7375C122.916 19.0019 121.299 14.4044 119.179 10.0333C117.568 6.86438 115.112 4.20246 112.083 2.34166C109.187 1.25833 106.024 1.10683 103.037 1.90833C97.8897 3.0179 92.864 4.63266 88.0333 6.72916C86.2929 4.4582 83.8267 2.85231 81.0458 2.17916C77.2942 1.39944 73.4224 1.39944 69.6708 2.17916C66.7274 3.12077 64.1886 5.02962 62.4666 7.59583C61.9794 8.39189 61.5971 9.24759 61.3291 10.1417C60.73 8.91358 60.0038 7.75167 59.1625 6.67499C57.6933 5.07512 55.8232 3.89698 53.7458 3.26249C52.2689 2.94536 50.7603 2.79995 49.25 2.82916C47.7744 2.76663 46.2973 2.91251 44.8625 3.26249C41.9297 3.5552 39.1173 4.57957 36.6833 6.24166C34.0767 8.2011 32.3296 11.0934 31.8083 14.3125C29.9764 13.205 27.8821 12.6067 25.7416 12.5792C23.8643 12.6529 22.0217 13.1088 20.3267 13.9191C18.6316 14.7294 17.1196 15.877 15.8833 17.2917C13.2039 20.0469 11.7072 23.7401 11.7125 27.5833V29.4792C9.72336 30.0153 7.78422 30.7221 5.91664 31.5917C4.20261 32.4953 2.7623 33.8421 1.74581 35.4917C1.03809 36.7425 0.717606 38.1752 0.824977 39.6083C1.03885 42.0543 1.4372 44.4807 2.01664 46.8667C2.50414 49.8458 3.09998 52.825 3.74998 55.75C5.21248 62.5208 6.94581 69.2375 8.29998 76.0083C9.00414 79.15 9.76248 82.4542 10.6833 85.7042C11.2791 87.925 11.9291 90.0917 12.6875 92.15C13.2284 93.8367 14.0328 95.4272 15.0708 96.8625C15.8844 98.0332 16.9602 98.9977 18.2125 99.6792C19.4315 100.304 20.8324 100.477 22.1666 100.167L23.25 99.7875C23.4155 99.9993 23.5966 100.198 23.7916 100.383C26.2808 102.449 28.6329 104.675 30.8333 107.046C31.9586 108.344 32.7737 109.882 33.2166 111.542C33.6017 112.741 33.8738 113.975 34.0291 115.225C34.5166 119.071 34.0291 122.971 34.5166 126.058C34.5164 126.566 34.7144 127.054 35.0685 127.418C35.4226 127.783 35.9048 127.994 36.4125 128.008C36.6615 128.023 36.911 127.988 37.1467 127.906C37.3823 127.824 37.5994 127.697 37.7856 127.531C37.9718 127.365 38.1234 127.163 38.2317 126.939C38.34 126.714 38.4028 126.47 38.4166 126.221C39.45 121.69 39.9589 117.055 39.9333 112.408C39.5963 108.755 38.0082 105.33 35.4375 102.713C34.661 102.069 33.8471 101.472 33 100.925C31.1583 99.8417 29.2083 98.975 27.5833 97.9458C28.4575 97.4395 29.362 96.9872 30.2916 96.5917L60.625 85.7583C61.0488 85.6075 61.3953 85.2945 61.5883 84.8881C61.7813 84.4818 61.805 84.0155 61.6541 83.5917C61.5033 83.1679 61.1903 82.8214 60.784 82.6283C60.3776 82.4353 59.9113 82.4117 59.4875 82.5625L28.6125 91.5C24.4958 92.6917 21.7333 98.8125 18.8625 90.3083C18.2125 88.3583 17.6166 86.3 17.0208 84.2417C16.2083 81.1 15.3958 77.9042 14.6916 74.8708L6.94581 45.9458C6.62081 44.4833 5.91664 42.3167 5.59164 40.2583C5.34488 39.4092 5.34488 38.5074 5.59164 37.6583C6.14014 36.6511 6.9677 35.8235 7.97498 35.275C9.41562 34.4603 10.9414 33.8063 12.525 33.325C13.0117 34.8461 13.6467 36.3156 14.4208 37.7125C17.2921 43.0408 21.7373 47.3536 27.15 50.0625C29.2413 50.8214 31.4769 51.0986 33.6902 50.8735C35.9036 50.6484 38.0376 49.9268 39.9333 48.7625C40.7544 48.2375 41.464 47.5559 42.0216 46.7566C42.5793 45.9573 42.974 45.056 43.1833 44.1042C45.2357 45.5061 47.5571 46.466 50.0002 46.9229C52.4433 47.3798 54.9547 47.3238 57.375 46.7583C59.5424 46.4141 61.575 45.486 63.2547 44.0736C64.9343 42.6612 66.1974 40.8179 66.9083 38.7417C67.2699 37.9009 67.5598 37.0312 67.775 36.1417C69.9424 37.903 72.4913 39.1337 75.2185 39.7356C77.9458 40.3375 80.7759 40.2939 83.4833 39.6083C86.0494 38.7778 88.2985 37.179 89.9261 35.0282C91.5537 32.8774 92.4813 30.2786 92.5833 27.5833C93.2277 21.5266 92.2947 15.4063 89.875 9.81666C93.6367 8.50901 97.4941 7.49486 101.412 6.78333C103.994 6.02496 106.739 6.02496 109.321 6.78333C112.408 7.75833 117.717 25.525 117.717 25.525C119.558 32.8917 121.562 39.175 123.133 46.4333C124.313 51.4249 124.967 56.5264 125.083 61.6542ZM38.4166 41.8292C38.432 42.2493 38.3216 42.6644 38.0997 43.0214C37.8777 43.3784 37.5543 43.6611 37.1708 43.8333C35.6681 44.6289 33.9715 44.9848 32.2758 44.8603C30.58 44.7357 28.9537 44.1357 27.5833 43.1292C24.435 40.7731 21.8149 37.784 19.8916 34.3542C18.5366 32.3355 17.7165 30.0057 17.5083 27.5833C17.2691 25.2189 17.9478 22.853 19.4041 20.975C20.0868 19.861 21.0013 18.907 22.0855 18.178C23.1697 17.4489 24.3982 16.9619 25.6875 16.75C26.8047 16.5536 27.9539 16.6556 29.0191 17.0455C30.0843 17.4355 31.0278 18.0996 31.7541 18.9708C32.3559 22.6903 33.3922 26.3263 34.8416 29.8042C35.7402 32.206 36.8081 34.5411 38.0375 36.7917C38.2977 38.4595 38.3159 40.1561 38.0916 41.8292H38.4166ZM62.6291 36.4125C62.2147 37.6708 61.4286 38.7739 60.3746 39.5765C59.3206 40.3791 58.0482 40.8434 56.725 40.9083C55.1763 41.2957 53.5626 41.3462 51.9927 41.0565C50.4228 40.7669 48.9334 40.1437 47.625 39.2292C45.0134 35.9628 42.9298 32.3073 41.45 28.3958C40.9805 27.0597 40.4389 25.7056 39.825 24.3333C37.7125 18.9167 36.6833 13.5 40.2583 10.7375C41.8188 9.46401 43.6869 8.62338 45.675 8.29999C47.5708 7.92083 46.5958 7.54166 48.1125 7.48749C49.7243 7.35865 51.3461 7.44976 52.9333 7.75833C54.6632 8.22584 56.1997 9.2312 57.3208 10.6292C59.1643 13.53 60.5185 16.7141 61.3291 20.0542C61.7054 22.094 62.2304 24.1035 62.9 26.0667C63.225 27.475 63.4416 28.5583 63.4958 28.9917C63.895 31.5642 63.4783 34.1973 62.3041 36.5208L62.6291 36.4125ZM86.4625 26.6083C86.0291 29.9125 85.0541 32.8917 82.2375 33.7583C80.3977 34.265 78.467 34.3479 76.5906 34.0007C74.7142 33.6536 72.9409 32.8855 71.4041 31.7542C70.0204 29.793 68.789 27.7286 67.7208 25.5792C66.9278 22.7515 65.9876 19.9671 64.9041 17.2375C64.1882 14.9374 64.4021 12.4484 65.5 10.3042C67.8349 8.6546 70.5257 7.57831 73.3541 7.16249C75.3206 6.61237 77.4002 6.61237 79.3666 7.16249C80.2035 7.42669 80.9794 7.85493 81.649 8.42223C82.3186 8.98954 82.8685 9.68454 83.2666 10.4667C85.8244 15.4753 86.8243 21.1349 86.1375 26.7167L86.4625 26.6083Z" fill="#1D6742"/>
</g>
<defs>
<clipPath id="clip0_88_3575">
<rect width="130" height="130" fill="white" transform="translate(0.5 0.5)"/>
</clipPath>
</defs>
</svg>
