<svg width="78" height="106" viewBox="0 0 78 106" fill="none" xmlns="http://www.w3.org/2000/svg">
<path d="M48.1836 90.7667H76.8339V104.834H25.09V56.7808H39.1594V79.2134L41.0326 76.5998L57.4038 53.7555C58.0182 53.005 58.5828 52.2179 59.0943 51.3977C61.3861 47.7513 62.7113 43.4408 62.7113 38.8248C62.7113 26.5409 53.3218 16.4089 41.3382 15.2333C40.571 15.1569 39.7904 15.1171 38.9999 15.1171C38.2095 15.1171 37.4289 15.1569 36.6617 15.2333H15.4646V35.9589C15.3483 36.8954 15.2919 37.8551 15.2919 38.8248C15.2919 39.7945 15.3517 40.7543 15.4646 41.6907V104.834H1.16602V1.16604H42.5505C53.066 2.14238 62.336 7.42258 68.5703 15.2333C71.6924 19.1353 74.0506 23.665 75.4323 28.5998C76.3456 31.8543 76.8339 35.2848 76.8339 38.8248C76.8339 46.0046 74.8344 52.7127 71.3635 58.428L71.3569 58.4379L68.0322 63.0739L48.1836 90.7634V90.7667Z" fill="#1D6742" stroke="#1D6742" stroke-miterlimit="10"/>
</svg>
