<svg width="131" height="131" viewBox="0 0 131 131" fill="none" xmlns="http://www.w3.org/2000/svg">
<g clip-path="url(#clip0_88_3594)">
<path d="M120.425 34.6792C116.03 27.3755 110.551 20.7821 104.175 15.125C95.3553 7.14837 84.2514 2.14592 72.4332 0.825007C60.7539 -0.149737 49.0235 1.96099 38.4166 6.94584C29.3664 11.0578 21.4073 17.2359 15.1791 24.9833C9.07367 32.661 4.74496 41.5959 2.50407 51.1458C2.44806 51.3771 2.4388 51.6173 2.47683 51.8522C2.51487 52.0871 2.59943 52.3121 2.72556 52.5139C2.85169 52.7157 3.01685 52.8903 3.21135 53.0275C3.40586 53.1646 3.62578 53.2615 3.85824 53.3125C4.30954 53.3939 4.77487 53.2987 5.15798 53.0467C5.5411 52.7947 5.81268 52.405 5.91657 51.9583C8.23103 42.9854 12.5457 34.6523 18.5374 27.5833C24.3749 20.5316 31.7999 14.9629 40.2041 11.3333C50.131 6.99851 61.0039 5.28271 71.7832 6.35001C82.429 7.70447 92.388 12.3432 100.275 19.6208C106.088 24.8999 111.106 30.9938 115.171 37.7125C119.341 44.2332 121.869 51.6677 122.537 59.3792C123.244 67.9789 122.231 76.6333 119.558 84.8375C116.833 92.9715 111.855 100.165 105.204 105.583C100.881 109.229 95.8166 111.89 90.3624 113.383C82.0062 115.784 73.3787 117.113 64.6874 117.338C64.266 117.365 63.8719 117.556 63.5888 117.87C63.3057 118.183 63.1557 118.595 63.1707 119.017C63.1706 119.228 63.213 119.436 63.2953 119.631C63.3776 119.825 63.4982 120 63.6498 120.147C63.8015 120.294 63.9811 120.408 64.178 120.484C64.3748 120.56 64.5849 120.595 64.7957 120.588C73.8028 120.541 82.7706 119.395 91.4999 117.175C97.4192 115.645 102.954 112.896 107.75 109.104C115.294 103.334 121.042 95.5376 124.325 86.625C127.442 77.8025 128.785 68.4514 128.279 59.1083C127.696 50.4459 124.999 42.0583 120.425 34.6792Z" fill="#1D6742"/>
<path d="M86.7332 86.7333C90.4114 85.1421 93.4867 82.42 95.5127 78.9622C97.5387 75.5043 98.4099 71.4908 97.9998 67.5042C97.8459 66.5932 97.4615 65.7366 96.8832 65.0161C96.3048 64.2956 95.5518 63.7349 94.6957 63.3875C92.2422 62.7223 89.6744 62.593 87.1665 63.0083C80.5582 63.3875 70.6457 65.0667 62.5748 65.9333C60.4082 66.2042 58.3498 66.3667 56.5623 66.475C56.1889 66.544 55.8515 66.7417 55.6086 67.0336C55.3658 67.3255 55.2328 67.6932 55.2328 68.0729C55.2328 68.4526 55.3658 68.8204 55.6086 69.1123C55.8515 69.4042 56.1889 69.6018 56.5623 69.6708L87.2207 68.6958H91.7165C91.8942 71.4198 91.2309 74.1326 89.8165 76.4674C88.4021 78.8021 86.3048 80.6461 83.8082 81.75C81.3712 83.4103 78.6051 84.5262 75.6982 85.0215C72.7912 85.5169 69.8117 85.3803 66.9623 84.6208C64.7402 83.6854 62.6898 82.3856 60.8957 80.775C59.0803 79.2722 57.5721 77.4329 56.454 75.3583C56.3545 75.1378 56.2125 74.9389 56.0361 74.7733C55.8598 74.6076 55.6525 74.4783 55.4261 74.3928C55.1997 74.3073 54.9587 74.2672 54.7168 74.2749C54.475 74.2825 54.237 74.3378 54.0165 74.4375C53.7979 74.5315 53.6002 74.6682 53.4351 74.8395C53.2699 75.0109 53.1407 75.2136 53.0549 75.4355C52.9692 75.6575 52.9286 75.8944 52.9356 76.1323C52.9426 76.3702 52.997 76.6043 53.0957 76.8208C54.2394 79.5124 55.9161 81.9446 58.0248 83.9708C60.0753 86.0354 62.4323 87.7712 65.0123 89.1167C68.5827 90.3567 72.3844 90.7861 76.1415 90.3739C79.8985 89.9617 83.5166 88.718 86.7332 86.7333Z" fill="#1D6742"/>
<path d="M45.5666 60.0833C46.772 60.4154 48.0447 60.4154 49.25 60.0833C50.2062 59.7488 51.0644 59.1822 51.7477 58.4342C52.431 57.6863 52.918 56.7805 53.1649 55.798C53.4119 54.8155 53.4111 53.7871 53.1627 52.805C52.9143 51.8229 52.426 50.9178 51.7416 50.1708C46.325 43.4542 35.4916 54.6125 42.3166 59.4875C43.329 59.9675 44.4498 60.173 45.5666 60.0833Z" fill="#1D6742"/>
<path d="M104.229 56.6167C105.446 56.8338 106.699 56.7216 107.858 56.2917C108.824 55.9608 109.692 55.3935 110.383 54.6413C111.074 53.8892 111.565 52.9763 111.813 51.9856C112.061 50.9949 112.056 49.958 111.801 48.9693C111.545 47.9806 111.047 47.0716 110.35 46.325C104.933 39.6625 94.0998 50.8208 100.925 55.6958C101.921 56.3007 103.064 56.6193 104.229 56.6167Z" fill="#1D6742"/>
<path d="M52.6081 109.429C52.0538 108.324 51.2118 107.388 50.1706 106.721C51.2339 104.968 51.6372 102.894 51.3081 100.871C51.0822 98.9558 50.4546 97.1101 49.4665 95.4542C48.7354 94.372 47.7734 93.4655 46.6498 92.8C46.878 92.2842 47.0242 91.7359 47.0831 91.175C47.3716 89.3999 47.2267 87.5813 46.6608 85.8742C46.0949 84.1672 45.1248 82.6222 43.8331 81.3708C41.0474 79.5797 37.7697 78.7082 34.4623 78.8792C30.4013 78.7601 26.3656 79.5561 22.654 81.2083C22.978 76.3348 21.6205 71.4976 18.8081 67.5042C13.9331 62.0875 5.0498 66.8 4.12896 74.8708C4.03511 78.1836 4.45538 81.491 5.3748 84.675C6.89146 90.0917 6.62063 89.8208 7.9748 91.8792C6.78302 93.1764 5.7801 94.6352 4.99563 96.2125C4.45396 98.0542 3.47896 100.221 4.34563 101.629C5.2123 103.038 5.97063 102.875 6.89146 101.954C7.8123 101.033 7.37896 99.5708 7.6498 98.7042C8.05215 97.1516 8.85535 95.732 9.97896 94.5875C10.8456 93.45 11.4956 93.3958 12.5248 92.4208C22.5456 82.8333 37.5498 81.75 40.2581 85.4875C44.8623 91.7708 33.9748 92.475 24.5498 98.325C24.3426 98.3844 24.1505 98.4872 23.9862 98.6267C23.8219 98.7661 23.6892 98.939 23.5969 99.1337C23.5047 99.3285 23.455 99.5407 23.4512 99.7562C23.4473 99.9716 23.4895 100.185 23.5748 100.383C23.6413 100.586 23.7483 100.773 23.8892 100.932C24.0302 101.092 24.2022 101.221 24.3947 101.313C24.5872 101.404 24.7963 101.455 25.0092 101.463C25.2221 101.471 25.4344 101.435 25.6331 101.358C27.854 101.033 29.804 101.033 31.6998 100.763C37.1165 99.8417 38.4706 97.1875 43.3998 98C44.2434 98.6876 44.8229 99.6459 45.0402 100.712C45.2574 101.779 45.0989 102.887 44.5915 103.85C42.1001 105.556 39.3055 106.769 36.3581 107.425C34.3575 108.381 32.4214 109.467 30.5623 110.675C30.3566 110.731 30.1643 110.828 29.9972 110.96C29.8301 111.092 29.6916 111.257 29.5903 111.444C29.4889 111.632 29.4268 111.838 29.4077 112.05C29.3885 112.263 29.4128 112.477 29.479 112.679C29.5346 112.885 29.6315 113.077 29.7638 113.244C29.896 113.411 30.0609 113.55 30.2484 113.651C30.4359 113.753 30.6421 113.815 30.8543 113.834C31.0666 113.853 31.2805 113.829 31.4831 113.763C33.4387 113.746 35.3918 113.619 37.3331 113.383C38.1815 113.268 39.0162 113.069 39.8248 112.788C41.7968 111.618 44.1357 111.232 46.379 111.704C46.557 111.738 46.726 111.808 46.8752 111.911C47.0245 112.013 47.1506 112.146 47.2456 112.3C47.4088 112.718 47.4088 113.182 47.2456 113.6C46.9598 114.977 46.3044 116.25 45.3498 117.283C44.2553 118.525 43.0191 119.634 41.6665 120.588C38.0444 123.083 33.8538 124.629 29.479 125.083C25.1418 125.722 20.7127 125.062 16.7498 123.188C13.8576 121.657 11.5671 119.195 10.2498 116.2C8.78486 113.028 7.92161 109.612 7.70396 106.125C7.69715 105.885 7.64224 105.65 7.54249 105.432C7.44274 105.214 7.3002 105.018 7.12334 104.857C6.94647 104.695 6.7389 104.57 6.51296 104.491C6.28702 104.411 6.04733 104.377 5.80813 104.392C5.56614 104.405 5.32925 104.467 5.11106 104.572C4.89286 104.678 4.69765 104.826 4.53662 105.007C4.37558 105.188 4.2519 105.399 4.17265 105.628C4.0934 105.857 4.06015 106.1 4.0748 106.342C4.14317 111.142 5.34985 115.857 7.59563 120.1C9.24008 123.054 11.655 125.506 14.5831 127.196C19.2924 129.79 24.6619 130.94 30.0206 130.5C35.4026 130.006 40.5683 128.141 45.0248 125.083C47.2494 123.599 49.2241 121.771 50.8748 119.667C52.1054 118.073 52.9575 116.221 53.3665 114.25C53.632 112.603 53.3664 110.915 52.6081 109.429ZM10.304 89.2792L9.81646 83.8625C9.81646 79.8 9.1123 74.4917 11.8206 72C12.3623 72 14.2581 68.8042 16.5873 73.1917C17.8737 75.5919 18.6657 78.2258 18.9165 80.9375C18.9143 81.2112 18.977 81.4815 19.0994 81.7262C19.2218 81.971 19.4004 82.1834 19.6206 82.3458C16.1775 84.1648 13.0351 86.5034 10.304 89.2792Z" fill="#1D6742"/>
</g>
<defs>
<clipPath id="clip0_88_3594">
<rect width="130" height="130" fill="white" transform="translate(0.5 0.5)"/>
</clipPath>
</defs>
</svg>
